# xmcd CD database file
#
# Track frame offsets:
#	187
#	35125
#	55975
#	69217
#	97555
#	125032
#	160210
#	184572
#	207025
#
# Disc length: 3093 seconds
#
# Revision: 2
# Processed by: cddbd v1.5.2PL0 Copyright (c) Steve Scherf et al.
# Submitted via: CDex 1.70beta2
#
DISCID=710c1309
DTITLE=Christopher Hollyday - The Natural Moment
DYEAR=1991
DGENRE=Jazz
TTITLE0=Scorpio Rising
TTITLE1=Had To Be Brad
TTITLE2=All New Meaning
TTITLE3=Point Of Delirium
TTITLE4=Every Time We Say Goodbye
TTITLE5=Johnny Red
TTITLE6=Afterglow
TTITLE7=Idleism
TTITLE8=The Natural Moment
EXTD=YEAR: 1991
EXTT0=
EXTT1=
EXTT2=
EXTT3=
EXTT4=
EXTT5=
EXTT6=
EXTT7=
EXTT8=
PLAYORDER=
